<svg width="12" height="18" viewBox="0 0 12 18" fill="none" xmlns="http://www.w3.org/2000/svg">
<g clip-path="url(#clip0_58_427)">
<path d="M3.30865 13.334C3.8062 13.9974 4.25902 14.6962 4.66386 15.4254C5.00951 16.1112 5.15361 16.5762 5.40622 17.4025C5.56114 17.859 5.70115 17.9953 6.00219 17.9953C6.33022 17.9953 6.47905 17.7635 6.59403 17.405C6.83281 16.6247 7.02017 16.0291 7.31576 15.4664C7.8958 14.3801 8.61654 13.4147 9.32473 12.4869C9.51645 12.2243 10.756 10.6945 11.3141 9.48739C11.3141 9.48739 11.9999 8.16143 11.9999 6.30958C11.9999 4.57737 11.3235 3.37598 11.3235 3.37598L9.37611 3.92167L8.19345 7.18084L7.90086 7.63025L7.84236 7.71167L7.76455 7.81359L7.62795 7.97637L7.43276 8.18055L6.37962 9.0783L3.74665 10.669L3.30865 13.334Z" fill="#34A853"/>
<path d="M0.591187 9.26434C1.2338 10.8001 2.47298 12.1502 3.31139 13.3349L7.76456 7.81556C7.76456 7.81556 7.13719 8.67407 5.99916 8.67407C4.73151 8.67407 3.70744 7.61491 3.70744 6.27938C3.70744 5.36354 4.23403 4.73438 4.23403 4.73438L1.21111 5.5819L0.591187 9.26434Z" fill="#FBBC04"/>
<path d="M7.8143 0.28374C9.2933 0.782689 10.5592 1.83017 11.3249 3.37479L7.76592 7.8124C7.76592 7.8124 8.29251 7.17185 8.29251 6.2617C8.29251 4.89507 7.19269 3.87413 6.00455 3.87413C4.881 3.87413 4.23572 4.73121 4.23572 4.73121V1.93557L7.8143 0.283691V0.28374Z" fill="#4285F4"/>
<path d="M1.40698 2.24461C2.29034 1.13876 3.84472 0 5.98765 0C7.02734 0 7.81062 0.285597 7.81062 0.285597L4.23237 4.73376H1.69714L1.40698 2.24461Z" fill="#1A73E8"/>
<path d="M0.591188 9.26448C0.591188 9.26448 0 8.05314 0 6.29826C0 4.63966 0.616219 3.18985 1.40695 2.24463L4.23436 4.73417L0.591188 9.26448Z" fill="#EA4335"/>
</g>
<defs>
<clipPath id="clip0_58_427">
<rect width="12" height="18" fill="white"/>
</clipPath>
</defs>
</svg>
